# xmcd
#
# Track frame offsets:
# 150
# 19435
# 33848
# 47745
# 64070
# 78348
# 93975
# 107910
# 123295
# 136575
# 149368
# 162065
# 175345
# 195163
# 216395
# 230888
# 247250
# 260830
#
# Disc length: 3722 seconds
#
#
# Revision: 2
# Processed by: cddbd v1.5.2PL0 Copyright (c) Steve Scherf et al.
# Submitted via: FreeRIP 2.951 
#
DISCID=030e8812
DTITLE=Various Artist - Tolle Scheibe 2 CD 2
DYEAR=0091
DGENRE=70er
TTITLE0=ABBA - Fernando
TTITLE1=Christie - San Bernadino
TTITLE2=Sailor - Girls, Girls, Girls
TTITLE3=Tina Rainford - Silver Bird
TTITLE4=Gary Glitter - I love you love we love
TTITLE5=Medicine Head - One and one is one
TTITLE6=Springwater - I will return
TTITLE7=Dawn - Tie a yellow ribbon round the ole oak tree
TTITLE8=Lobo - Me and you and a dog named boo
TTITLE9=Edison Lighthouse - Love Grows
TTITLE10=Dave Edmunds - I hear you knocking
TTITLE11=Middle of the road - Sacramento
TTITLE12=Hotlegs - Neanderthal Man
TTITLE13=10 CC - Rubber Bullets
TTITLE14=The Tremeloes - Me and my life
TTITLE15=Baccara - Sorry, I'm a lady
TTITLE16=Johnny Johnson and the Bandwagon - On the pony express
TTITLE17=The Spinners - Working my way back to you
EXTD=YEAR: 91
EXTT0=
EXTT1=
EXTT2=
EXTT3=
EXTT4=
EXTT5=
EXTT6=
EXTT7=
EXTT8=
EXTT9=
EXTT10=
EXTT11=
EXTT12=
EXTT13=
EXTT14=
EXTT15=
EXTT16=
EXTT17=
PLAYORDER=
